<svg width="20" height="20" viewBox="0 0 20 20" fill="none" xmlns="http://www.w3.org/2000/svg">
<path d="M9.90848 14.3667C9.79881 14.3673 9.69009 14.3463 9.58856 14.3048C9.48702 14.2633 9.39468 14.2022 9.31681 14.125L4.31681 9.125C4.2387 9.04753 4.17671 8.95536 4.1344 8.85382C4.09209 8.75227 4.07031 8.64334 4.07031 8.53333C4.07031 8.42332 4.09209 8.3144 4.1344 8.21285C4.17671 8.1113 4.2387 8.01914 4.31681 7.94167C4.47295 7.78646 4.68416 7.69934 4.90431 7.69934C5.12447 7.69934 5.33568 7.78646 5.49181 7.94167L9.90848 12.3583L14.3168 7.94167C14.4729 7.78646 14.6842 7.69934 14.9043 7.69934C15.1245 7.69934 15.3357 7.78646 15.4918 7.94167C15.5699 8.01914 15.6319 8.1113 15.6742 8.21285C15.7165 8.3144 15.7383 8.42332 15.7383 8.53333C15.7383 8.64334 15.7165 8.75227 15.6742 8.85382C15.6319 8.95536 15.5699 9.04753 15.4918 9.125L10.4918 14.125C10.3366 14.279 10.1271 14.3657 9.90848 14.3667Z" fill="#7E8299"/>
</svg>
