<svg width="44" height="44" viewBox="0 0 44 44" fill="none" xmlns="http://www.w3.org/2000/svg">
<path d="M24.9393 25.0167C24.1823 23.878 23.795 22.5335 23.8301 21.1667V21.0292C23.8279 19.5877 23.2902 18.1985 22.3212 17.1313C21.3523 16.0642 20.0213 15.3951 18.5868 15.2542V14.1817C18.5868 13.9993 18.5144 13.8245 18.3854 13.6955C18.2565 13.5666 18.0816 13.4942 17.8993 13.4942C17.717 13.4942 17.5421 13.5666 17.4132 13.6955C17.2842 13.8245 17.2118 13.9993 17.2118 14.1817V15.2908C16.6995 15.3503 16.1971 15.4767 15.7176 15.6667C14.666 16.1052 13.771 16.8506 13.1496 17.8056C12.5282 18.7607 12.2092 19.8809 12.2343 21.02C12.2455 22.4709 11.7856 23.8863 10.9235 25.0533L10.3093 25.8967C10.0182 26.2869 9.8415 26.7505 9.79905 27.2356C9.7566 27.7206 9.85004 28.2079 10.0689 28.6428C10.2878 29.0777 10.6235 29.443 11.0383 29.6979C11.4531 29.9528 11.9307 30.0871 12.4176 30.0858H15.4243V30.3883C15.5055 30.981 15.7986 31.5242 16.2494 31.9174C16.7002 32.3106 17.2782 32.5273 17.8764 32.5273C18.4746 32.5273 19.0525 32.3106 19.5033 31.9174C19.9541 31.5242 20.2472 30.981 20.3285 30.3883V30.0858H23.4176C23.8959 30.0792 24.3637 29.944 24.7718 29.6945C25.18 29.445 25.5135 29.0903 25.7375 28.6676C25.9615 28.245 26.0677 27.7698 26.045 27.292C26.0223 26.8141 25.8715 26.3512 25.6085 25.9517L24.9393 25.0167ZM18.981 30.2325C18.9293 30.4824 18.7931 30.707 18.5952 30.8681C18.3973 31.0293 18.1499 31.1174 17.8947 31.1174C17.6395 31.1174 17.3921 31.0293 17.1942 30.8681C16.9963 30.707 16.8601 30.4824 16.8085 30.2325V30.0858H18.981V30.2325ZM23.4176 28.7108H12.4176C12.1859 28.71 11.959 28.6451 11.7619 28.5233C11.5648 28.4015 11.4053 28.2276 11.3009 28.0207C11.1966 27.8139 11.1514 27.5822 11.1706 27.3513C11.1897 27.1204 11.2723 26.8993 11.4093 26.7125L12.0326 25.8692C13.0777 24.446 13.6312 22.7214 13.6093 20.9558C13.5973 20.1052 13.8395 19.2704 14.305 18.5584C14.7704 17.8464 15.4379 17.2895 16.2218 16.9592C16.805 16.7268 17.4273 16.6085 18.0551 16.6108C18.6372 16.606 19.2145 16.7165 19.7537 16.9359C20.2929 17.1553 20.7833 17.4793 21.1966 17.8892C21.6099 18.2991 21.938 18.7868 22.1619 19.3242C22.3857 19.8615 22.501 20.4379 22.501 21.02V21.1667C22.4766 22.7942 22.943 24.3913 23.8393 25.75L24.4626 26.6667C24.6069 26.8869 24.6804 27.146 24.6735 27.4092C24.6796 27.5779 24.6517 27.7461 24.5913 27.9038C24.531 28.0615 24.4395 28.2054 24.3222 28.327C24.205 28.4485 24.0645 28.5451 23.909 28.611C23.7536 28.677 23.5865 28.7109 23.4176 28.7108Z" fill="#5E6278"/>
<rect x="20" y="3.75" width="18" height="18" rx="9" fill="#F1416C"/>
<path d="M28.6747 16.8494C28.2012 16.8494 27.7775 16.7607 27.4034 16.5831C27.0294 16.4032 26.7322 16.157 26.5121 15.8445C26.2943 15.532 26.1783 15.1745 26.1641 14.772H27.4425C27.4661 15.0703 27.5952 15.3142 27.8295 15.5036C28.0639 15.6906 28.3456 15.7841 28.6747 15.7841C28.9328 15.7841 29.1624 15.7249 29.3636 15.6065C29.5649 15.4882 29.7235 15.3236 29.8395 15.1129C29.9555 14.9022 30.0123 14.6619 30.0099 14.392C30.0123 14.1174 29.9543 13.8736 29.8359 13.6605C29.7176 13.4474 29.5554 13.2805 29.3494 13.1598C29.1435 13.0367 28.9067 12.9751 28.6392 12.9751C28.4214 12.9728 28.2071 13.013 27.9964 13.0959C27.7857 13.1787 27.6188 13.2876 27.4957 13.4226L26.3061 13.2273L26.6861 9.47727H30.9048V10.5781H27.7763L27.5668 12.5064H27.6094C27.7443 12.3478 27.9349 12.2164 28.1811 12.1122C28.4273 12.0057 28.6972 11.9524 28.9908 11.9524C29.4311 11.9524 29.8241 12.0566 30.1697 12.2649C30.5154 12.4709 30.7876 12.755 30.9865 13.1172C31.1854 13.4794 31.2848 13.8937 31.2848 14.3601C31.2848 14.8407 31.1735 15.2692 30.951 15.6456C30.7308 16.0196 30.4242 16.3144 30.0312 16.5298C29.6406 16.7429 29.1884 16.8494 28.6747 16.8494Z" fill="white"/>
</svg>
