<svg width="44" height="44" viewBox="0 0 44 44" fill="none" xmlns="http://www.w3.org/2000/svg">
<path d="M30.7718 28.7925L27.8293 26.0425C29.0798 24.3756 29.6579 22.2995 29.449 20.2262C29.2401 18.1529 28.2595 16.2339 26.7016 14.8499C25.1437 13.466 23.1225 12.7182 21.0391 12.7551C18.9556 12.7919 16.9621 13.6106 15.4541 15.0488C13.9462 16.4869 13.0339 18.4394 12.8984 20.5188C12.763 22.5982 13.4141 24.6526 14.7227 26.2742C16.0313 27.8959 17.9018 28.9664 19.9628 29.2732C22.0239 29.5801 24.1251 29.1009 25.8493 27.9308L28.8743 30.8C29.1258 31.0298 29.4506 31.163 29.791 31.1758C29.9792 31.1774 30.1656 31.139 30.3378 31.0632C30.5101 30.9873 30.6643 30.8757 30.7902 30.7358C30.9176 30.6076 31.0182 30.4553 31.0864 30.2879C31.1545 30.1204 31.1887 29.9411 31.187 29.7603C31.1853 29.5796 31.1477 29.4009 31.0764 29.2348C31.0052 29.0687 30.9016 28.9183 30.7718 28.7925ZM21.1743 26.8858C20.0148 26.884 18.8818 26.5386 17.9184 25.8933C16.9551 25.248 16.2046 24.3316 15.7617 23.26C15.3188 22.1884 15.2033 21.0096 15.43 19.8724C15.6567 18.7352 16.2152 17.6907 17.0351 16.8708C17.8551 16.0509 18.8996 15.4923 20.0367 15.2657C21.1739 15.039 22.3527 15.1544 23.4243 15.5973C24.496 16.0402 25.4123 16.7907 26.0576 17.7541C26.703 18.7175 27.0483 19.8505 27.0502 21.01C27.0502 21.7816 26.8982 22.5457 26.6029 23.2586C26.3076 23.9715 25.8748 24.6192 25.3292 25.1648C24.7835 25.7105 24.1358 26.1433 23.4229 26.4386C22.71 26.7338 21.946 26.8858 21.1743 26.8858Z" fill="#A1A5B7"/>
</svg>
