<svg width="18" height="18" viewBox="0 0 18 18" fill="none" xmlns="http://www.w3.org/2000/svg">
<g id="security">
<g id="eye-slash">
<path id="Vector" d="M1.39913 17.2C1.23124 17.1985 1.07027 17.1329 0.949132 17.0166C0.831578 16.898 0.765625 16.7378 0.765625 16.5708C0.765625 16.4038 0.831578 16.2436 0.949132 16.125L16.1658 0.983314C16.2187 0.906177 16.2883 0.841904 16.3694 0.795237C16.4504 0.748569 16.541 0.720697 16.6342 0.713677C16.7275 0.706656 16.8212 0.720666 16.9084 0.754672C16.9955 0.788679 17.0739 0.841815 17.1378 0.910161C17.2017 0.978508 17.2494 1.06032 17.2774 1.14957C17.3055 1.23882 17.3131 1.33322 17.2998 1.42582C17.2865 1.51841 17.2526 1.60684 17.2005 1.68458C17.1485 1.76232 17.0797 1.82739 16.9991 1.87498L1.83247 17.0166C1.71793 17.1326 1.56213 17.1985 1.39913 17.2V17.2Z" fill="#A1A5B7"/>
<path id="Vector_2" d="M6.62502 9.5083C6.62722 8.87909 6.87815 8.27627 7.32307 7.83135C7.76799 7.38642 8.37081 7.1355 9.00002 7.1333C9.35436 7.13347 9.70407 7.21376 10.023 7.36817C10.3419 7.52258 10.6218 7.74711 10.8417 8.02497L7.50835 11.3583C7.23138 11.1363 7.0081 10.8546 6.85515 10.5343C6.7022 10.214 6.62354 9.86326 6.62502 9.5083V9.5083ZM8.75835 11.8583C8.83886 11.8624 8.91952 11.8624 9.00002 11.8583C9.62991 11.8583 10.234 11.6081 10.6794 11.1627C11.1248 10.7173 11.375 10.1132 11.375 9.4833C11.3791 9.40836 11.3791 9.33325 11.375 9.2583L8.75835 11.8583Z" fill="#A1A5B7"/>
<path id="Vector_3" d="M4.04102 14.8333L6.62435 12.2583C6.25309 11.9324 5.95273 11.5336 5.74187 11.0868C5.53101 10.64 5.41416 10.1547 5.39854 9.66089C5.38292 9.16708 5.46888 8.67533 5.65108 8.2161C5.83328 7.75688 6.10785 7.33996 6.45777 6.99118C6.80769 6.64241 7.22551 6.3692 7.68533 6.18851C8.14515 6.00781 8.63718 5.92346 9.13093 5.94069C9.62468 5.95793 10.1096 6.07637 10.5557 6.28869C11.0018 6.50101 11.3996 6.80268 11.7243 7.175L14.3577 4.55C12.8638 3.2482 10.9779 2.4827 8.99935 2.375C5.05768 2.375 0.666016 6.225 0.666016 9.50833C0.666016 11.2917 2.09102 13.35 4.04102 14.8333Z" fill="#E3E4E9"/>
<path id="Vector_4" d="M12.3824 8.25001C12.5394 8.65111 12.6213 9.07764 12.6241 9.50834C12.6284 10.0955 12.489 10.6748 12.218 11.1957C11.9471 11.7167 11.5529 12.1634 11.0697 12.4971C10.5865 12.8307 10.029 13.0411 9.44589 13.1098C8.86275 13.1786 8.27164 13.1037 7.72409 12.8917L5.10742 15.4917C6.28363 16.2045 7.62435 16.6007 8.99909 16.6417C13.1658 16.6417 17.3324 12.8167 17.3324 9.50834C17.1972 7.91112 16.4653 6.42344 15.2824 5.34167L12.3824 8.25001Z" fill="#E3E4E9"/>
</g>
</g>
</svg>
