<svg width="18" height="16" viewBox="0 0 18 16" fill="none" xmlns="http://www.w3.org/2000/svg">
<g id="security">
<g id="eye">
<path id="Vector" d="M9 10.375C10.3117 10.375 11.375 9.31168 11.375 8C11.375 6.68832 10.3117 5.625 9 5.625C7.68832 5.625 6.625 6.68832 6.625 8C6.625 9.31168 7.68832 10.375 9 10.375Z" fill="black"/>
<path id="Vector_2" d="M9 10.375C10.3117 10.375 11.375 9.31168 11.375 8C11.375 6.68832 10.3117 5.625 9 5.625C7.68832 5.625 6.625 6.68832 6.625 8C6.625 9.31168 7.68832 10.375 9 10.375Z" fill="#A1A5B7"/>
<path id="Vector_3" d="M8.99935 0.866638C5.05768 0.866638 0.666016 4.71664 0.666016 7.99997C0.666016 11.1333 5.05768 15.1333 8.99935 15.1333C13.166 15.1333 17.3327 11.3083 17.3327 7.99997C17.3327 4.81664 12.941 0.866638 8.99935 0.866638ZM8.99935 11.625C8.28239 11.625 7.58153 11.4124 6.98541 11.014C6.38928 10.6157 5.92465 10.0496 5.65029 9.3872C5.37592 8.72482 5.30413 7.99595 5.444 7.29277C5.58387 6.58959 5.92912 5.94368 6.43609 5.43671C6.94305 4.92974 7.58897 4.5845 8.29215 4.44462C8.99533 4.30475 9.72419 4.37654 10.3866 4.65091C11.049 4.92528 11.6151 5.3899 12.0134 5.98603C12.4117 6.58216 12.6243 7.28301 12.6243 7.99997C12.6243 8.96138 12.2424 9.88341 11.5626 10.5632C10.8828 11.2431 9.96076 11.625 8.99935 11.625Z" fill="#E3E4E9"/>
</g>
</g>
</svg>
